<mxfile host="65bd71144e">
    <diagram id="mFDD_YNPLoTO3QqUCcKb" name="Página-1">
        <mxGraphModel dx="1050" dy="732" grid="1" gridSize="10" guides="1" tooltips="1" connect="1" arrows="1" fold="1" page="1" pageScale="1" pageWidth="827" pageHeight="1169" math="0" shadow="0">
            <root>
                <mxCell id="0"/>
                <mxCell id="1" parent="0"/>
                <mxCell id="Jh3pXh4WZX40SytpMSMW-85" style="rounded=0;orthogonalLoop=1;jettySize=auto;html=1;exitX=0.5;exitY=0;exitDx=0;exitDy=0;entryX=0;entryY=0.5;entryDx=0;entryDy=0;endArrow=none;endFill=0;" parent="1" source="2" target="80" edge="1">
                    <mxGeometry relative="1" as="geometry">
                        <Array as="points">
                            <mxPoint x="230" y="40"/>
                            <mxPoint x="160" y="40"/>
                            <mxPoint x="30" y="40"/>
                            <mxPoint x="30" y="240"/>
                            <mxPoint x="30" y="310"/>
                        </Array>
                        <mxPoint x="85" y="310" as="targetPoint"/>
                    </mxGeometry>
                </mxCell>
                <mxCell id="Jh3pXh4WZX40SytpMSMW-93" style="edgeStyle=orthogonalEdgeStyle;rounded=0;orthogonalLoop=1;jettySize=auto;html=1;entryX=0;entryY=0.5;entryDx=0;entryDy=0;exitX=1;exitY=0.5;exitDx=0;exitDy=0;endArrow=none;endFill=0;" parent="1" source="2" target="81" edge="1">
                    <mxGeometry relative="1" as="geometry">
                        <Array as="points">
                            <mxPoint x="430" y="90"/>
                            <mxPoint x="430" y="80"/>
                            <mxPoint x="630" y="80"/>
                        </Array>
                        <mxPoint x="620" y="80" as="targetPoint"/>
                    </mxGeometry>
                </mxCell>
                <mxCell id="Jh3pXh4WZX40SytpMSMW-105" style="edgeStyle=orthogonalEdgeStyle;rounded=0;orthogonalLoop=1;jettySize=auto;html=1;entryX=0.075;entryY=0.483;entryDx=0;entryDy=0;endArrow=none;endFill=0;entryPerimeter=0;" parent="1" source="2" target="82" edge="1">
                    <mxGeometry relative="1" as="geometry">
                        <Array as="points">
                            <mxPoint x="240" y="408"/>
                            <mxPoint x="410" y="408"/>
                        </Array>
                        <mxPoint x="413.6" y="407.6600000000001" as="targetPoint"/>
                    </mxGeometry>
                </mxCell>
                <mxCell id="2" value="&lt;b&gt;Centro&lt;/b&gt;" style="rounded=0;whiteSpace=wrap;html=1;fillColor=#330000;" parent="1" vertex="1">
                    <mxGeometry x="170" y="60" width="120" height="60" as="geometry"/>
                </mxCell>
                <mxCell id="3" value="Nombre" style="ellipse;whiteSpace=wrap;html=1;fillColor=#1A3300;" parent="1" vertex="1">
                    <mxGeometry x="60" y="160" width="60" height="30" as="geometry"/>
                </mxCell>
                <mxCell id="4" value="Dirección" style="ellipse;whiteSpace=wrap;html=1;fillColor=#1A3300;" parent="1" vertex="1">
                    <mxGeometry x="150" y="160" width="60" height="30" as="geometry"/>
                </mxCell>
                <mxCell id="5" value="Ciudad" style="ellipse;whiteSpace=wrap;html=1;fillColor=#1A3300;" parent="1" vertex="1">
                    <mxGeometry x="250" y="160" width="60" height="30" as="geometry"/>
                </mxCell>
                <mxCell id="6" value="email" style="ellipse;whiteSpace=wrap;html=1;fillColor=#1A3300;" parent="1" vertex="1">
                    <mxGeometry x="340" y="160" width="60" height="30" as="geometry"/>
                </mxCell>
                <mxCell id="7" value="Código" style="ellipse;whiteSpace=wrap;html=1;fillColor=#1A3300;" parent="1" vertex="1">
                    <mxGeometry x="60" y="75" width="60" height="30" as="geometry"/>
                </mxCell>
                <mxCell id="8" value="" style="endArrow=none;html=1;entryX=0;entryY=1;entryDx=0;entryDy=0;" parent="1" target="2" edge="1">
                    <mxGeometry width="50" height="50" relative="1" as="geometry">
                        <mxPoint x="90" y="160" as="sourcePoint"/>
                        <mxPoint x="140" y="110" as="targetPoint"/>
                    </mxGeometry>
                </mxCell>
                <mxCell id="12" value="" style="endArrow=none;html=1;entryX=1;entryY=1;entryDx=0;entryDy=0;" parent="1" target="2" edge="1">
                    <mxGeometry width="50" height="50" relative="1" as="geometry">
                        <mxPoint x="364" y="160" as="sourcePoint"/>
                        <mxPoint x="414" y="110" as="targetPoint"/>
                    </mxGeometry>
                </mxCell>
                <mxCell id="13" value="" style="endArrow=none;html=1;exitX=0.5;exitY=0;exitDx=0;exitDy=0;" parent="1" source="5" target="2" edge="1">
                    <mxGeometry width="50" height="50" relative="1" as="geometry">
                        <mxPoint x="330" y="260" as="sourcePoint"/>
                        <mxPoint x="380" y="210" as="targetPoint"/>
                    </mxGeometry>
                </mxCell>
                <mxCell id="14" value="" style="endArrow=none;html=1;entryX=0.5;entryY=1;entryDx=0;entryDy=0;exitX=0.5;exitY=0;exitDx=0;exitDy=0;" parent="1" source="4" target="2" edge="1">
                    <mxGeometry width="50" height="50" relative="1" as="geometry">
                        <mxPoint x="100" y="170" as="sourcePoint"/>
                        <mxPoint x="180" y="130" as="targetPoint"/>
                    </mxGeometry>
                </mxCell>
                <mxCell id="15" value="" style="endArrow=none;html=1;entryX=0;entryY=0.5;entryDx=0;entryDy=0;exitX=1;exitY=0.5;exitDx=0;exitDy=0;" parent="1" source="7" target="2" edge="1">
                    <mxGeometry width="50" height="50" relative="1" as="geometry">
                        <mxPoint x="110" y="180" as="sourcePoint"/>
                        <mxPoint x="190" y="140" as="targetPoint"/>
                        <Array as="points"/>
                    </mxGeometry>
                </mxCell>
                <mxCell id="16" value="teléfono" style="ellipse;whiteSpace=wrap;html=1;fillColor=#1A3300;" parent="1" vertex="1">
                    <mxGeometry x="340" y="30" width="60" height="30" as="geometry"/>
                </mxCell>
                <mxCell id="17" value="" style="endArrow=none;html=1;entryX=1;entryY=0;entryDx=0;entryDy=0;exitX=0;exitY=0.5;exitDx=0;exitDy=0;" parent="1" source="16" target="2" edge="1">
                    <mxGeometry width="50" height="50" relative="1" as="geometry">
                        <mxPoint x="374" y="170" as="sourcePoint"/>
                        <mxPoint x="300" y="130" as="targetPoint"/>
                        <Array as="points"/>
                    </mxGeometry>
                </mxCell>
                <mxCell id="18" value="Socio" style="rounded=0;whiteSpace=wrap;html=1;fillColor=#330000;" parent="1" vertex="1">
                    <mxGeometry x="580" y="220" width="120" height="60" as="geometry"/>
                </mxCell>
                <mxCell id="19" value="DNI" style="ellipse;whiteSpace=wrap;html=1;fillColor=#1A3300;" parent="1" vertex="1">
                    <mxGeometry x="470" y="320" width="60" height="30" as="geometry"/>
                </mxCell>
                <mxCell id="20" value="Nombre" style="ellipse;whiteSpace=wrap;html=1;fillColor=#1A3300;" parent="1" vertex="1">
                    <mxGeometry x="560" y="320" width="60" height="30" as="geometry"/>
                </mxCell>
                <mxCell id="21" value="Apellido" style="ellipse;whiteSpace=wrap;html=1;fillColor=#1A3300;" parent="1" vertex="1">
                    <mxGeometry x="660" y="320" width="60" height="30" as="geometry"/>
                </mxCell>
                <mxCell id="22" value="teléfono" style="ellipse;whiteSpace=wrap;html=1;fillColor=#1A3300;" parent="1" vertex="1">
                    <mxGeometry x="750" y="320" width="60" height="30" as="geometry"/>
                </mxCell>
                <mxCell id="23" value="&lt;font style=&quot;font-size: 10px&quot;&gt;Cta. corriente&lt;/font&gt;" style="ellipse;whiteSpace=wrap;html=1;fillColor=#1A3300;" parent="1" vertex="1">
                    <mxGeometry x="750" y="235" width="60" height="30" as="geometry"/>
                </mxCell>
                <mxCell id="24" value="" style="endArrow=none;html=1;entryX=0;entryY=1;entryDx=0;entryDy=0;" parent="1" target="18" edge="1">
                    <mxGeometry width="50" height="50" relative="1" as="geometry">
                        <mxPoint x="500" y="320" as="sourcePoint"/>
                        <mxPoint x="550" y="270" as="targetPoint"/>
                    </mxGeometry>
                </mxCell>
                <mxCell id="25" value="" style="endArrow=none;html=1;entryX=1;entryY=1;entryDx=0;entryDy=0;exitX=0.5;exitY=0;exitDx=0;exitDy=0;" parent="1" source="22" target="18" edge="1">
                    <mxGeometry width="50" height="50" relative="1" as="geometry">
                        <mxPoint x="774" y="320" as="sourcePoint"/>
                        <mxPoint x="824" y="270" as="targetPoint"/>
                    </mxGeometry>
                </mxCell>
                <mxCell id="26" value="" style="endArrow=none;html=1;exitX=0.5;exitY=0;exitDx=0;exitDy=0;" parent="1" source="21" target="18" edge="1">
                    <mxGeometry width="50" height="50" relative="1" as="geometry">
                        <mxPoint x="740" y="420" as="sourcePoint"/>
                        <mxPoint x="790" y="370" as="targetPoint"/>
                    </mxGeometry>
                </mxCell>
                <mxCell id="27" value="" style="endArrow=none;html=1;entryX=0.5;entryY=1;entryDx=0;entryDy=0;exitX=0.5;exitY=0;exitDx=0;exitDy=0;" parent="1" source="20" target="18" edge="1">
                    <mxGeometry width="50" height="50" relative="1" as="geometry">
                        <mxPoint x="510" y="330" as="sourcePoint"/>
                        <mxPoint x="590" y="290" as="targetPoint"/>
                    </mxGeometry>
                </mxCell>
                <mxCell id="28" value="" style="endArrow=none;html=1;exitX=0;exitY=0.5;exitDx=0;exitDy=0;" parent="1" source="23" edge="1">
                    <mxGeometry width="50" height="50" relative="1" as="geometry">
                        <mxPoint x="740" y="250" as="sourcePoint"/>
                        <mxPoint x="700" y="250" as="targetPoint"/>
                        <Array as="points"/>
                    </mxGeometry>
                </mxCell>
                <mxCell id="58" value="m2" style="ellipse;whiteSpace=wrap;html=1;fillColor=#1A3300;" parent="1" vertex="1">
                    <mxGeometry x="160" y="715" width="60" height="30" as="geometry"/>
                </mxCell>
                <mxCell id="61" value="" style="endArrow=none;html=1;entryX=0.5;entryY=1;entryDx=0;entryDy=0;exitX=0.5;exitY=0;exitDx=0;exitDy=0;" parent="1" source="58" target="Jh3pXh4WZX40SytpMSMW-77" edge="1">
                    <mxGeometry width="50" height="50" relative="1" as="geometry">
                        <mxPoint x="234" y="695" as="sourcePoint"/>
                        <mxPoint x="160" y="655" as="targetPoint"/>
                    </mxGeometry>
                </mxCell>
                <mxCell id="62" value="" style="endArrow=none;html=1;entryX=0.25;entryY=1;entryDx=0;entryDy=0;" parent="1" source="Jh3pXh4WZX40SytpMSMW-78" target="Jh3pXh4WZX40SytpMSMW-77" edge="1">
                    <mxGeometry width="50" height="50" relative="1" as="geometry">
                        <mxPoint x="135" y="695" as="sourcePoint"/>
                        <mxPoint x="121.42857142857144" y="655" as="targetPoint"/>
                    </mxGeometry>
                </mxCell>
                <mxCell id="65" value="nombre&amp;nbsp;" style="ellipse;whiteSpace=wrap;html=1;fillColor=#1A3300;" parent="1" vertex="1">
                    <mxGeometry x="270" y="690" width="60" height="30" as="geometry"/>
                </mxCell>
                <mxCell id="66" value="" style="endArrow=none;html=1;entryX=1;entryY=1;entryDx=0;entryDy=0;exitX=0;exitY=0.5;exitDx=0;exitDy=0;" parent="1" source="65" target="Jh3pXh4WZX40SytpMSMW-77" edge="1">
                    <mxGeometry width="50" height="50" relative="1" as="geometry">
                        <mxPoint x="270" y="700" as="sourcePoint"/>
                        <mxPoint x="160" y="625" as="targetPoint"/>
                        <Array as="points"/>
                    </mxGeometry>
                </mxCell>
                <mxCell id="67" value="actividades" style="rounded=0;whiteSpace=wrap;html=1;fillColor=#330000;" parent="1" vertex="1">
                    <mxGeometry x="580" y="585" width="120" height="60" as="geometry"/>
                </mxCell>
                <mxCell id="69" value="Nombre" style="ellipse;whiteSpace=wrap;html=1;fillColor=#1A3300;" parent="1" vertex="1">
                    <mxGeometry x="510" y="685" width="60" height="30" as="geometry"/>
                </mxCell>
                <mxCell id="70" value="fecha" style="ellipse;whiteSpace=wrap;html=1;fillColor=#1A3300;" parent="1" vertex="1">
                    <mxGeometry x="610" y="685" width="60" height="30" as="geometry"/>
                </mxCell>
                <mxCell id="71" value="&lt;font style=&quot;font-size: 10px&quot;&gt;explicación&lt;/font&gt;" style="ellipse;whiteSpace=wrap;html=1;fillColor=#1A3300;" parent="1" vertex="1">
                    <mxGeometry x="470" y="600" width="60" height="30" as="geometry"/>
                </mxCell>
                <mxCell id="73" value="" style="endArrow=none;html=1;entryX=1;entryY=1;entryDx=0;entryDy=0;exitX=0.5;exitY=0;exitDx=0;exitDy=0;" parent="1" source="77" target="67" edge="1">
                    <mxGeometry width="50" height="50" relative="1" as="geometry">
                        <mxPoint x="780" y="685" as="sourcePoint"/>
                        <mxPoint x="824" y="635" as="targetPoint"/>
                    </mxGeometry>
                </mxCell>
                <mxCell id="74" value="" style="endArrow=none;html=1;exitX=0.5;exitY=0;exitDx=0;exitDy=0;" parent="1" source="70" target="67" edge="1">
                    <mxGeometry width="50" height="50" relative="1" as="geometry">
                        <mxPoint x="740" y="785" as="sourcePoint"/>
                        <mxPoint x="790" y="735" as="targetPoint"/>
                    </mxGeometry>
                </mxCell>
                <mxCell id="75" value="" style="endArrow=none;html=1;entryX=0;entryY=1;entryDx=0;entryDy=0;exitX=0.5;exitY=0;exitDx=0;exitDy=0;" parent="1" source="69" target="67" edge="1">
                    <mxGeometry width="50" height="50" relative="1" as="geometry">
                        <mxPoint x="510" y="695" as="sourcePoint"/>
                        <mxPoint x="590" y="655" as="targetPoint"/>
                    </mxGeometry>
                </mxCell>
                <mxCell id="76" value="" style="endArrow=none;html=1;entryX=0;entryY=0.5;entryDx=0;entryDy=0;exitX=1;exitY=0.5;exitDx=0;exitDy=0;" parent="1" source="71" target="67" edge="1">
                    <mxGeometry width="50" height="50" relative="1" as="geometry">
                        <mxPoint x="520" y="705" as="sourcePoint"/>
                        <mxPoint x="600" y="665" as="targetPoint"/>
                        <Array as="points"/>
                    </mxGeometry>
                </mxCell>
                <mxCell id="77" value="código" style="ellipse;whiteSpace=wrap;html=1;fillColor=#1A3300;" parent="1" vertex="1">
                    <mxGeometry x="700" y="685" width="60" height="30" as="geometry"/>
                </mxCell>
                <mxCell id="Jh3pXh4WZX40SytpMSMW-100" style="edgeStyle=orthogonalEdgeStyle;rounded=0;orthogonalLoop=1;jettySize=auto;html=1;endArrow=none;endFill=0;entryX=0;entryY=0.5;entryDx=0;entryDy=0;" parent="1" source="Jh3pXh4WZX40SytpMSMW-77" target="83" edge="1">
                    <mxGeometry relative="1" as="geometry">
                        <mxPoint x="290" y="480" as="targetPoint"/>
                    </mxGeometry>
                </mxCell>
                <mxCell id="Jh3pXh4WZX40SytpMSMW-77" value="Salas" style="shape=ext;margin=3;double=1;whiteSpace=wrap;html=1;align=center;shadow=1;fillColor=#001933;" parent="1" vertex="1">
                    <mxGeometry x="50" y="610" width="130" height="60" as="geometry"/>
                </mxCell>
                <mxCell id="Jh3pXh4WZX40SytpMSMW-78" value="Caracteristicas" style="ellipse;shape=doubleEllipse;margin=3;whiteSpace=wrap;html=1;align=center;shadow=1;fillColor=#1A3300;" parent="1" vertex="1">
                    <mxGeometry x="20" y="715" width="100" height="40" as="geometry"/>
                </mxCell>
                <mxCell id="Jh3pXh4WZX40SytpMSMW-87" style="edgeStyle=orthogonalEdgeStyle;rounded=0;orthogonalLoop=1;jettySize=auto;html=1;entryX=0.25;entryY=0;entryDx=0;entryDy=0;exitX=0.5;exitY=1;exitDx=0;exitDy=0;endArrow=none;endFill=0;" parent="1" source="80" target="Jh3pXh4WZX40SytpMSMW-77" edge="1">
                    <mxGeometry relative="1" as="geometry">
                        <mxPoint x="100" y="460" as="targetPoint"/>
                        <mxPoint x="135" y="340" as="sourcePoint"/>
                    </mxGeometry>
                </mxCell>
                <mxCell id="Jh3pXh4WZX40SytpMSMW-88" value="&lt;font style=&quot;font-size: 14px&quot;&gt;(1,n)&lt;/font&gt;" style="text;html=1;align=center;verticalAlign=middle;resizable=0;points=[];autosize=1;strokeColor=none;" parent="1" vertex="1">
                    <mxGeometry x="70" y="280" width="40" height="20" as="geometry"/>
                </mxCell>
                <mxCell id="Jh3pXh4WZX40SytpMSMW-106" style="edgeStyle=orthogonalEdgeStyle;rounded=0;orthogonalLoop=1;jettySize=auto;html=1;entryX=0.5;entryY=0;entryDx=0;entryDy=0;endArrow=none;endFill=0;exitX=0.5;exitY=1;exitDx=0;exitDy=0;" parent="1" source="81" target="18" edge="1">
                    <mxGeometry relative="1" as="geometry">
                        <mxPoint x="670" y="110" as="sourcePoint"/>
                    </mxGeometry>
                </mxCell>
                <mxCell id="Jh3pXh4WZX40SytpMSMW-95" value="&lt;span style=&quot;font-size: 14px&quot;&gt;(1,n)&lt;/span&gt;" style="text;html=1;align=center;verticalAlign=middle;resizable=0;points=[];autosize=1;strokeColor=none;" parent="1" vertex="1">
                    <mxGeometry x="610" y="40" width="40" height="20" as="geometry"/>
                </mxCell>
                <mxCell id="Jh3pXh4WZX40SytpMSMW-102" style="edgeStyle=orthogonalEdgeStyle;rounded=0;orthogonalLoop=1;jettySize=auto;html=1;entryX=0.586;entryY=1.019;entryDx=0;entryDy=0;entryPerimeter=0;endArrow=none;endFill=0;exitX=1;exitY=0.5;exitDx=0;exitDy=0;" parent="1" source="83" target="18" edge="1">
                    <mxGeometry relative="1" as="geometry">
                        <mxPoint x="640" y="290" as="targetPoint"/>
                        <mxPoint x="370" y="470" as="sourcePoint"/>
                    </mxGeometry>
                </mxCell>
                <mxCell id="Jh3pXh4WZX40SytpMSMW-103" value="&lt;font style=&quot;font-size: 14px&quot;&gt;(n:n)&lt;/font&gt;" style="text;html=1;align=center;verticalAlign=middle;resizable=0;points=[];autosize=1;strokeColor=none;" parent="1" vertex="1">
                    <mxGeometry x="510" y="430" width="40" height="20" as="geometry"/>
                </mxCell>
                <mxCell id="Jh3pXh4WZX40SytpMSMW-108" style="edgeStyle=orthogonalEdgeStyle;rounded=0;orthogonalLoop=1;jettySize=auto;html=1;entryX=0;entryY=0.25;entryDx=0;entryDy=0;endArrow=none;endFill=0;exitX=0.5;exitY=0;exitDx=0;exitDy=0;" parent="1" source="82" target="18" edge="1">
                    <mxGeometry relative="1" as="geometry">
                        <Array as="points">
                            <mxPoint x="455" y="380"/>
                            <mxPoint x="455" y="235"/>
                        </Array>
                        <mxPoint x="455" y="380" as="sourcePoint"/>
                    </mxGeometry>
                </mxCell>
                <mxCell id="Jh3pXh4WZX40SytpMSMW-109" style="edgeStyle=orthogonalEdgeStyle;rounded=0;orthogonalLoop=1;jettySize=auto;html=1;endArrow=none;endFill=0;exitX=1;exitY=0.5;exitDx=0;exitDy=0;" parent="1" source="82" target="67" edge="1">
                    <mxGeometry relative="1" as="geometry">
                        <mxPoint x="505" y="410" as="sourcePoint"/>
                    </mxGeometry>
                </mxCell>
                <mxCell id="6N7cFvUUq7-HkkdPHvs9-78" value="&lt;font style=&quot;font-size: 14px&quot;&gt;(n:n)&lt;/font&gt;" style="text;html=1;align=center;verticalAlign=middle;resizable=0;points=[];autosize=1;strokeColor=none;" parent="1" vertex="1">
                    <mxGeometry x="350" y="500" width="40" height="20" as="geometry"/>
                </mxCell>
                <mxCell id="80" value="pertenecen" style="shape=rhombus;perimeter=rhombusPerimeter;whiteSpace=wrap;html=1;align=center;shadow=0;strokeColor=#6D1F00;fillColor=#a0522d;fontColor=#ffffff;" vertex="1" parent="1">
                    <mxGeometry x="90" y="280" width="100" height="60" as="geometry"/>
                </mxCell>
                <mxCell id="81" value="tienen" style="shape=rhombus;perimeter=rhombusPerimeter;whiteSpace=wrap;html=1;align=center;shadow=0;strokeColor=#6D1F00;fillColor=#a0522d;fontColor=#ffffff;" vertex="1" parent="1">
                    <mxGeometry x="630" y="50" width="110" height="60" as="geometry"/>
                </mxCell>
                <mxCell id="82" value="matriculas" style="shape=rhombus;perimeter=rhombusPerimeter;whiteSpace=wrap;html=1;align=center;shadow=0;strokeColor=#6D1F00;fillColor=#a0522d;fontColor=#ffffff;" vertex="1" parent="1">
                    <mxGeometry x="430" y="380" width="120" height="60" as="geometry"/>
                </mxCell>
                <mxCell id="83" value="reservan" style="shape=rhombus;perimeter=rhombusPerimeter;whiteSpace=wrap;html=1;align=center;shadow=0;strokeColor=#6D1F00;fillColor=#a0522d;fontColor=#ffffff;" vertex="1" parent="1">
                    <mxGeometry x="270" y="440" width="120" height="60" as="geometry"/>
                </mxCell>
            </root>
        </mxGraphModel>
    </diagram>
</mxfile>